<svg width="159" height="24" viewBox="0 0 159 24" fill="none" xmlns="http://www.w3.org/2000/svg">
<path d="M12.2324 20.0312V16.3262L4.74023 13.8242L3.81055 13.4961L4.74023 13.1543L12.2324 10.6113V6.91992L0.132812 11.9375V15.0137L12.2324 20.0312ZM58.2547 22H62.0691V10.0098H67.4012V7.20703H62.0691V6.40039C62.0691 5.96289 62.1238 5.57096 62.2332 5.22461C62.3517 4.87826 62.5294 4.58659 62.7664 4.34961C63.0307 4.06706 63.3862 3.85286 63.8328 3.70703C64.2794 3.5612 64.8217 3.48828 65.4598 3.48828C66.0522 3.48828 66.5672 3.51562 67.0047 3.57031C67.4422 3.625 67.8341 3.6888 68.1805 3.76172L68.4266 0.78125C68.1167 0.726562 67.8159 0.676432 67.5242 0.630859C67.2417 0.585286 66.9591 0.544271 66.6766 0.507812C66.394 0.471354 66.1023 0.44401 65.8016 0.425781C65.5099 0.398438 65.2046 0.384766 64.8855 0.384766C63.8738 0.384766 62.9578 0.516927 62.1375 0.78125C61.3172 1.03646 60.6199 1.41927 60.0457 1.92969C59.4715 2.4401 59.0294 3.06901 58.7195 3.81641C58.4096 4.5638 58.2547 5.42513 58.2547 6.40039V7.20703H54.3719V10.0098H58.2547V22ZM72.2738 14.4668V14.7539C72.2738 15.8385 72.4288 16.8411 72.7387 17.7617C73.0486 18.6732 73.5043 19.4661 74.1059 20.1406C74.6983 20.8151 75.4275 21.3438 76.2934 21.7266C77.1684 22.1003 78.1618 22.2871 79.2738 22.2871C80.3767 22.2871 81.3611 22.1003 82.227 21.7266C83.0928 21.3438 83.822 20.8151 84.4145 20.1406C85.0069 19.4661 85.4581 18.6732 85.768 17.7617C86.0779 16.8411 86.2328 15.8385 86.2328 14.7539V14.4668C86.2328 13.3913 86.0779 12.3978 85.768 11.4863C85.4581 10.5658 85.0069 9.76823 84.4145 9.09375C83.8129 8.41927 83.0792 7.89062 82.2133 7.50781C81.3474 7.125 80.3585 6.93359 79.2465 6.93359C78.1345 6.93359 77.1456 7.125 76.2797 7.50781C75.4229 7.89062 74.6983 8.41927 74.1059 9.09375C73.5043 9.76823 73.0486 10.5658 72.7387 11.4863C72.4288 12.3978 72.2738 13.3913 72.2738 14.4668ZM76.0746 14.7539V14.4668C76.0746 13.8652 76.1339 13.2956 76.2523 12.7578C76.3708 12.2201 76.5577 11.7461 76.8129 11.3359C77.0681 10.9258 77.3962 10.6022 77.7973 10.3652C78.1983 10.1283 78.6814 10.0098 79.2465 10.0098C79.8207 10.0098 80.3083 10.1283 80.7094 10.3652C81.1104 10.6022 81.4385 10.9258 81.6937 11.3359C81.9398 11.7461 82.1221 12.2201 82.2406 12.7578C82.3591 13.2956 82.4184 13.8652 82.4184 14.4668V14.7539C82.4184 15.3737 82.3591 15.957 82.2406 16.5039C82.1221 17.0417 81.9398 17.5111 81.6937 17.9121C81.4385 18.3223 81.1104 18.6458 80.7094 18.8828C80.3083 19.1198 79.8298 19.2383 79.2738 19.2383C78.6996 19.2383 78.2074 19.1198 77.7973 18.8828C77.3962 18.6458 77.0681 18.3223 76.8129 17.9121C76.5577 17.5111 76.3708 17.0417 76.2523 16.5039C76.1339 15.957 76.0746 15.3737 76.0746 14.7539ZM101.633 6.93359C100.639 6.93359 99.7233 7.17513 98.8848 7.6582C98.0462 8.13216 97.3262 8.78841 96.7246 9.62695L96.6973 9.29883L96.5469 7.20703H93.0059V22H96.8066V13.1133C96.9798 12.694 97.1986 12.3294 97.4629 12.0195C97.7272 11.7096 98.0462 11.4544 98.4199 11.2539C98.7298 11.0807 99.0807 10.9531 99.4727 10.8711C99.8737 10.7799 100.32 10.7344 100.812 10.7344C101.286 10.7344 101.783 10.7663 102.303 10.8301C102.831 10.8848 103.346 10.9714 103.848 11.0898L104.408 7.30273C104.107 7.21159 103.711 7.12956 103.219 7.05664C102.736 6.97461 102.207 6.93359 101.633 6.93359ZM111.591 7.20703H108.324V22H111.783V10.9258C111.828 10.8073 111.879 10.6979 111.933 10.5977C111.988 10.4974 112.052 10.4108 112.125 10.3379C112.225 10.2376 112.339 10.1602 112.466 10.1055C112.594 10.0508 112.74 10.0234 112.904 10.0234C113.05 10.0234 113.186 10.0462 113.314 10.0918C113.442 10.1283 113.556 10.1966 113.656 10.2969C113.747 10.3971 113.82 10.5384 113.875 10.7207C113.929 10.903 113.957 11.1354 113.957 11.418V22H117.306V11.0898C117.306 10.9805 117.306 10.8939 117.306 10.8301C117.306 10.7663 117.306 10.7253 117.306 10.707C117.352 10.6068 117.407 10.5202 117.47 10.4473C117.534 10.3652 117.607 10.2923 117.689 10.2285C117.789 10.1647 117.894 10.1146 118.004 10.0781C118.122 10.0417 118.254 10.0234 118.4 10.0234C118.537 10.0234 118.669 10.0462 118.796 10.0918C118.933 10.1283 119.052 10.1966 119.152 10.2969C119.252 10.4062 119.33 10.5521 119.384 10.7344C119.448 10.9167 119.48 11.1491 119.48 11.4316V22H122.939V11.4453C122.939 10.625 122.857 9.93229 122.693 9.36719C122.538 8.79297 122.319 8.32357 122.037 7.95898C121.745 7.60352 121.403 7.34375 121.011 7.17969C120.629 7.01562 120.214 6.93359 119.767 6.93359C119.412 6.93359 119.084 6.97917 118.783 7.07031C118.482 7.16146 118.213 7.28906 117.976 7.45312C117.785 7.58073 117.607 7.73568 117.443 7.91797C117.288 8.09115 117.147 8.28711 117.019 8.50586C116.937 8.27799 116.837 8.07747 116.718 7.9043C116.609 7.72201 116.477 7.56706 116.322 7.43945C116.121 7.26628 115.884 7.13867 115.611 7.05664C115.338 6.97461 115.028 6.93359 114.681 6.93359C113.97 6.93359 113.364 7.12044 112.863 7.49414C112.371 7.85872 111.983 8.36003 111.701 8.99805L111.591 7.20703ZM132.064 23.709L139.515 2.09375H135.974L128.523 23.709H132.064ZM145.932 20.0449L158.237 15.0273V11.9238L145.932 6.91992V10.5977L153.78 13.1816L154.6 13.4551L153.766 13.7285L145.932 16.3535V20.0449Z" fill="#333333"/>
<path d="M28.7672 6.93359C27.7737 6.93359 26.8577 7.17513 26.0191 7.6582C25.1806 8.13216 24.4605 8.78841 23.859 9.62695L23.8316 9.29883L23.6812 7.20703H20.1402V22H23.941V13.1133C24.1142 12.694 24.3329 12.3294 24.5973 12.0195C24.8616 11.7096 25.1806 11.4544 25.5543 11.2539C25.8642 11.0807 26.2151 10.9531 26.607 10.8711C27.0081 10.7799 27.4547 10.7344 27.9469 10.7344C28.4208 10.7344 28.9176 10.7663 29.4371 10.8301C29.9658 10.8848 30.4807 10.9714 30.982 11.0898L31.5426 7.30273C31.2418 7.21159 30.8453 7.12956 30.3531 7.05664C29.8701 6.97461 29.3414 6.93359 28.7672 6.93359ZM43.5383 22.2734C44.9693 22.2734 46.2089 21.9954 47.257 21.4395C48.3052 20.8835 49.0708 20.2637 49.5539 19.5801L47.6535 17.5293C47.216 18.0944 46.6464 18.5182 45.9445 18.8008C45.2427 19.0833 44.5181 19.2246 43.7707 19.2246C43.2421 19.2246 42.7544 19.1426 42.3078 18.9785C41.8612 18.8145 41.4647 18.582 41.1184 18.2812C40.7811 17.9896 40.5122 17.666 40.3117 17.3105C40.1112 16.946 39.9471 16.4674 39.8195 15.875V15.834H49.8547V14.2207C49.8547 13.1361 49.7043 12.1471 49.4035 11.2539C49.1027 10.3516 48.6652 9.58138 48.091 8.94336C47.5077 8.30534 46.7967 7.81315 45.9582 7.4668C45.1288 7.11133 44.1809 6.93359 43.1145 6.93359C42.0845 6.93359 41.132 7.12044 40.257 7.49414C39.382 7.86784 38.6255 8.39193 37.9875 9.06641C37.3495 9.74089 36.8527 10.5475 36.4973 11.4863C36.1418 12.416 35.9641 13.446 35.9641 14.5762V15.123C35.9641 16.1165 36.1418 17.0508 36.4973 17.9258C36.8618 18.7917 37.3768 19.5436 38.0422 20.1816C38.7076 20.8288 39.5051 21.3392 40.4348 21.7129C41.3645 22.0866 42.399 22.2734 43.5383 22.2734ZM43.0871 10.0098C43.5702 10.0098 43.994 10.0872 44.3586 10.2422C44.7323 10.388 45.0467 10.5885 45.302 10.8438C45.5572 11.1081 45.7577 11.418 45.9035 11.7734C46.0493 12.1289 46.1223 12.5072 46.1223 12.9082V13.209H39.8879C39.979 12.7259 40.1158 12.2884 40.298 11.8965C40.4803 11.5046 40.7082 11.1673 40.9816 10.8848C41.246 10.6022 41.5559 10.388 41.9113 10.2422C42.2668 10.0872 42.6587 10.0098 43.0871 10.0098Z" fill="#88DD34"/>
</svg>
